<?xml version="1.0" standalone="no"?>
<svg viewBox="0 0 200 200" xmlns="http://www.w3.org/2000/svg">
  <path fill="#FF0066" d="M46.2,-73.6C57.6,-64.5,63.1,-47.9,69.9,-32.2C76.6,-16.4,84.7,-1.6,84.4,13.3C84.1,28.2,75.6,43.1,63.9,54C52.3,64.9,37.7,71.7,22.2,77C6.6,82.2,-9.8,85.8,-24.5,82.1C-39.1,78.4,-52,67.3,-63.2,54.6C-74.5,42,-84,27.7,-85.6,12.7C-87.1,-2.3,-80.5,-18,-72.7,-32.5C-65,-46.9,-56,-60,-43.7,-68.6C-31.3,-77.3,-15.7,-81.4,0.9,-82.7C17.4,-84.1,34.8,-82.6,46.2,-73.6Z" transform="translate(100 100)" />
</svg>
